# xmcd CD database file
#
# Track frame offsets:
#	187
#	18997
#	33187
#	49225
#	66775
#	88042
#	111887
#	131197
#	144552
#	161625
#	189847
#
# Disc length: 2735 seconds
#
# Revision: 0
# Processed by: cddbd v1.5.1PL0 Copyright (c) Steve Scherf et al.
# Submitted via: CDex 1.51
#
DISCID=930aad0b
DTITLE=So What? - 努
DYEAR=1997
DGENRE=Hard Rock
TTITLE0=です。」
TTITLE1=パンティー
TTITLE2=オッサンタイフーン
TTITLE3=ゲロゲロ
TTITLE4=ナンだっ！！チミは？
TTITLE5=特捜　What?最前線
TTITLE6=嗚呼日本の馬鹿社長
TTITLE7=し・た・い
TTITLE8=和製アメリカン
TTITLE9=一週間
TTITLE10=応援団
EXTD=YEAR: 1997
EXTT0=
EXTT1=
EXTT2=
EXTT3=
EXTT4=
EXTT5=
EXTT6=
EXTT7=
EXTT8=
EXTT9=
EXTT10=
PLAYORDER=
